<svg preserveAspectRatio="xMidYMid meet" data-bbox="17 17 166 166" viewBox="17 17 166 166" height="200" width="200" xmlns="http://www.w3.org/2000/svg" data-type="tint" role="presentation" aria-hidden="true">
    <g>
        <path d="M168.6 146.7l2.7-4.2c3.8-6.4 6.8-13.4 8.8-20.7l.6-2.4-.5-.3.5.3c.1-.2.1-.5.2-.7.2-.9.4-1.9.6-2.9 1-5.1 1.5-10.4 1.5-15.8 0-45.8-37.2-83-83-83s-83 37.2-83 83 37.2 83 83 83c22.4 0 42.7-8.9 57.7-23.4 1.3-1.3 2.7-2.6 3.9-4 1.4-1.5 2.6-3.1 3.9-4.7 1-1.3 1.9-2.5 2.8-3.9l.3-.3m-12.1 10.6c-.5.1-.9.2-1.4.3-4.1.6-8.6.3-13.4-1 .9 0 1.8.1 2.7.1 3.5 0 7-.3 10.4-1.4 1.9-.6 3.7-1.5 5.5-2.3.1-.1.3-.1.4-.2-1.4 1.6-2.8 3.1-4.2 4.5zm2.7-6.6c-1.7.8-3.5 1.6-5.2 2.2-4.5 1.4-9.2 1.4-13.9 1.1 2.5-1.7 5.7-2.5 8.5-3.1 4.5-.9 9-1.4 13.6-1.5-1.1.5-2 .9-3 1.3zm8.2-5.2l-.5-.5m8.6-20.1c-1.3 2.4-2.7 4.8-3.9 7.4-1.1 2.3-1.8 4.6-2.3 6.8-.1-1.8 0-3.5.4-5.2 1.2-4.3 4.2-8 7.1-11.3-.4.7-.8 1.5-1.3 2.3zm3.1-7.7c-1 .7-1.8 1.6-2.4 2.3-3.5 3.8-7.4 8.1-8.9 13.6-.8 2.8-.8 5.7-.2 8.5-2.2-2-4.5-3.8-6.8-5.5 0-.6-.1-1.1-.2-1.7 1.4-2.4 1.9-5.4 1.6-8.5-.5-3.7-2.1-7.1-3.5-9.7-1.7-3.2-4.6-7.7-9-10.5-.4-.2-1.3-.8-2.4-.5-1 .3-1.4 1.2-1.6 1.6-2.4 5-2.7 11-1.2 16.4-2.1-1.3-4.3-2.3-6.4-2.8-.1 0-.2 0-.3-.1-.9-6.5-4.2-12.8-9.1-17.2-5-4.5-11.6-7.1-18.3-7.3-2.7 0-4.6 1.1-4.8 3-.1.7.1 1.3.2 1.8 2.1 6.8 6.1 12.8 11.3 16.8 5 3.9 9.5 4.2 14.2 4.6 2 .2 4.1.3 6.3.8 2.7.6 5.7 2.3 8.5 4.5.9 1.7 2 3.1 3.1 4.1-4.4-1.4-9.1-2.4-13.8-2-5.1.4-10.2 2.3-14.2 5.4l-1.3 1 1.3 1c3.5 2.7 8.5 4.9 12.7 5.7 2.5.5 4.3.6 5.7.6 1.8 0 3.2-.3 4.7-.6.7-.1 1.4-.3 2.2-.4 2.1-.3 4.2-1.5 6.2-2.6 1.8-1 5.3-2.6 5.3-2.6 3.2 2.4 6.4 4.8 9.3 7.7l-1.5 2.1c-5.8-.1-11.6.4-17.3 1.6-4.4.9-9.9 2.5-13 6.9l-.9 1.3 1.5.6c5.3 2.1 10.4 3.1 15.1 3.1.8 0 1.7 0 2.5-.1-14.2 12.6-32.8 20.2-53.3 20.2-33.8 0-62.7-20.9-74.6-50.4l.5-.4c4.9-3.7 7.7-5.8 12.1-11 1.3-1.6 2.5-3.2 3.7-4.8.4-.5.8-1.1 1.2-1.6 3.4 5 9.3 8.6 16.1 9.7 1.5.2 3.1.4 4.7.4 4.7 0 9.8-1 15.1-3.1l1.5-.6-.9-1.3c-3-4.4-8.5-6-13-6.9-6.8-1.4-13.8-1.9-20.8-1.5.2-.3.4-.6.7-.8 3.1-3.5 6.9-6.3 10.7-9.1 2.9.5 6.3 1.8 9.2 2.9l3.7 1.4c3.3 1.3 5.1 1.9 8.1 1.9h1.2c4-.2 13.6-4.4 14.7-6.4.3-.5.3-1.1 0-1.5l-.3-.4c-4.1-3.1-9.1-5-14.2-5.4-4.8-.3-9.4.6-13.8 2 .8-.7 1.5-1.6 2.2-2.6 3.6-2.4 7.2-4.5 10.4-5.1 1.8-.4 3.4-.6 4.9-.8 4.9-.7 9.2-1.4 14.6-5.5 5.2-4 9.2-10 11.3-16.8.1-.2.1-.5.2-.9 0-.2.1-.6.1-.7.5-1.1.9-2.3.2-3.3-.8-1-2.1-.7-3.6-.3-.5.1-1.1.3-1.7.3-8.1 1.1-13.9 3.4-18.2 7.3-5.2 4.7-8.9 11.6-9.7 18-.1.1-.4.7-.4.7-2 .6-4 1.6-6.1 2.8 2.1-5.7 1.8-12.3-.8-17.8-.2-.4-.6-1.3-1.6-1.6-1.1-.3-2 .3-2.4.5-4.4 2.7-7.2 7.3-9 10.5-1.4 2.6-3.1 6-3.5 9.7-.4 3.1.2 6.1 1.6 8.5.1.7 0 1.2 0 1.8-2.3 1.7-4.6 3.5-6.8 5.5.6-2.8.6-5.7-.2-8.5-1.5-5.5-5.4-9.8-8.9-13.6-1.2-1.3-2.9-3.2-5.2-3.6l-1-.2-.4 1c-3.9 10.1.8 25.1 9.8 31.6-.6.8-1.2 1.5-1.7 2.3-1.2 1.6-2.4 3.2-3.6 4.7-4.2 5-6.7 6.9-11.6 10.6-3.2-8.6-4.9-18-4.9-27.7 0-44.4 36.1-80.5 80.5-80.5s80.5 36.1 80.5 80.5c0 5.7-.7 11.5-1.9 17zm-47.4 20.7c5.2 0 10.4-.4 15.6-1.3l1.1-.2c1.8-.3 3.5-.6 5.2-.7.2.1.5.2.8.3-.9.5-1.9 1-2.8 1.5-1.8 1-3.7 2.1-5.3 2.3-.8.1-1.6.3-2.2.4-2.6.5-4.5.9-9.5-.1-2.2-.4-4.6-1.3-6.9-2.4 1.2.2 2.6.2 4 .2zm-6.1-2.7c3.1-1.7 6.6-2.8 10.1-3.1 4.3-.3 8.5.6 12.6 1.8h-.3l-1.1.2c-7 1.2-14.2 1.5-21.3 1.1zm28.1-4.8c-1.8-1.5-3.6-3.1-5.5-4.6-2.3-4.6-2.7-10.2-1.2-15.1 3.5 7.2 6.9 14.4 10.2 21.6.2.5.4.9.6 1.4-1.3-.9-2.6-2-4.1-3.3zm-5.3-22.4c3 1.9 5.5 4.8 8 9.5 1.3 2.4 2.8 5.5 3.2 8.8.2 1.7.1 3.4-.3 4.8-3.4-7.7-7.1-15.5-10.9-23.1zm-18 8.7c.4.3.9.7 1.5 1.1.7.5 2.2 1.5 2.9 2.3l-3.3-.3c-4.5-.4-8.4-.7-12.9-4.1-4.7-3.6-8.3-9-10.3-15.2 7.7 4.9 15.1 10.3 22.1 16.2zm-20.4-18.2h.4c6.1.1 12.2 2.6 16.7 6.6 3.3 3 5.9 7 7.2 11.3-.4-.3-.7-.5-1.1-.8-.5-.4-1-.7-1.3-.9-6.9-5.8-14.2-11.2-21.9-16.2zM36.1 87.7c1.6 2.5 3.3 5.2 4.4 7.5 2 4.4 2.9 8.5 2.7 12.1-.1.3-.3.6-.4.8-7.1-5.1-11.4-16.7-9.8-25.4.9 1.6 2 3.4 3.1 5zm-.2-5c.1.1.2.3.4.4 3.3 3.6 7 7.7 8.3 12.6.5 1.7.6 3.5.5 5.2-.5-2.2-1.3-4.4-2.3-6.8-1.2-2.5-2.9-5.2-4.5-7.8-.9-1.1-1.6-2.4-2.4-3.6zm9.3 28.8c.1 0 .1 0 0 0l.1.1c0-.1 0-.1-.1-.1zm8.9 3.5c1.8.8 3.6 1.7 5.5 2.3 3.4 1.1 6.9 1.4 10.4 1.4.9 0 1.8 0 2.7-.1-4.8 1.2-9.3 1.6-13.4 1-5.5-.9-10.4-3.6-13.5-7.4 2.8.3 5.5 1.5 8.3 2.8zm-1.9-3.6c4.6.1 9.1.6 13.6 1.5 2.8.6 5.9 1.4 8.5 3.1-4.6.3-9.5.3-13.9-1.1-1.8-.6-3.5-1.4-5.2-2.2-1-.4-2-.9-3-1.3zm15.3-12.8c5.2.9 10.4 1.3 15.6 1.3 1.7 0 3.4-.1 5.1-.2-2.9 1.4-6.9 2.9-9.1 3-3.4.2-4.7-.4-8.3-1.7l-3.7-1.4c-1.6-.6-3.4-1.3-5.1-1.9 1.5.1 3 .3 4.5.6l1 .3zm-.9-2.7c4.1-1.3 8.3-2.1 12.6-1.8 3.5.2 7 1.3 10.1 3.1-7.1.5-14.3.2-21.3-1l-1.1-.2c-.1-.1-.2-.1-.3-.1zm-11.1-2.8c-.4-1.5-.6-3.1-.3-4.8.4-3.3 1.9-6.4 3.2-8.8 2.6-4.7 5.1-7.7 8-9.5-3.7 7.6-7.4 15.3-10.9 23.1zm12.4-20.4c1.5 5.1 1.1 10.8-1.3 15.5-.2.4-.4.7-.6 1.1-2.1 1.4-4.1 2.9-6 4.4l-.9.6c-.7.6-1.4 1-2 1.5l.6-1.5c3.2-7.2 6.7-14.4 10.2-21.6zm15 4c-1.2 1-2.2 2-3.2 3 1.4-4.7 4.3-9.3 8-12.7 3.7-3.3 8.7-5.4 15.6-6.5-6.6 4.8-13.7 10.6-20.4 16.2zm23.8-15.3v.1c0 .2-.1.4-.1.5-1.9 6.3-5.6 11.9-10.4 15.6-4.9 3.8-8.7 4.3-13.4 5-.8.1-1.6.3-2.5.4.1-.1.2-.3.3-.4l.4-.6c.9-1.2 2.1-2.2 3.5-3.4 7.3-6.2 15.1-12.4 22.2-17.2z" fill="#7E9175"></path>
    </g>
</svg>